<svg width="33" height="33" viewBox="0 0 33 33" fill="none" xmlns="http://www.w3.org/2000/svg">
<path fill-rule="evenodd" clip-rule="evenodd" d="M3.25031 1.37448C3.25031 1.16372 3.42854 0.992859 3.6484 0.992859H32.3115C32.5314 0.992859 32.7096 1.16372 32.7096 1.37448V28.9787C32.7096 29.1894 32.5314 29.3603 32.3115 29.3603C32.0916 29.3603 31.9134 29.1894 31.9134 28.9787V1.75611H3.6484C3.42854 1.75611 3.25031 1.58525 3.25031 1.37448Z" fill="white" stroke="white" stroke-width="0.5" stroke-linecap="round" stroke-linejoin="round"/>
<path d="M2.75318 5.66842L2.75318 29.4117L2.75318 29.5367L2.87818 29.5367L3.6681 29.5367L3.7931 29.5367L3.7931 29.4117L3.79309 5.66842L5.41899 7.29327C5.62205 7.49619 5.95122 7.49619 6.15427 7.29327C6.35736 7.09031 6.35736 6.76121 6.15427 6.55824L3.64077 4.04638C3.43772 3.84346 3.10855 3.84346 2.9055 4.04638L0.392005 6.55824C0.18891 6.76121 0.188911 7.09031 0.392004 7.29327C0.595055 7.49619 0.924229 7.49619 1.12728 7.29327L2.75318 5.66842Z" fill="white" stroke="white" stroke-width="0.25"/>
<path d="M25.1262 27.2668L26.7602 28.8913L2.8772 28.8913H2.7522V29.0163V29.8057V29.9307H2.8772L26.7602 29.9307L25.1262 31.5551C24.922 31.7581 24.922 32.0876 25.1262 32.2906C25.33 32.4932 25.6601 32.4932 25.8639 32.2906L28.3905 29.7787C28.5947 29.5757 28.5947 29.2462 28.3905 29.0432L25.8639 26.5314C25.6601 26.3287 25.33 26.3287 25.1262 26.5314C24.922 26.7344 24.922 27.0638 25.1262 27.2668Z" fill="white" stroke="white" stroke-width="0.25"/>
<path fill-rule="evenodd" clip-rule="evenodd" d="M14.1624 1.10846C14.3167 1.26261 14.3167 1.51252 14.1624 1.66666L9.42295 6.40308C9.26871 6.55722 9.01864 6.55722 8.8644 6.40308C8.71016 6.24894 8.71016 5.99903 8.8644 5.84489L13.6039 1.10846C13.7581 0.954324 14.0082 0.954324 14.1624 1.10846Z" fill="white" stroke="white" stroke-width="0.5" stroke-linecap="round" stroke-linejoin="round"/>
<path fill-rule="evenodd" clip-rule="evenodd" d="M32.4623 19.923C32.6165 20.0771 32.6165 20.327 32.4623 20.4812L28.1177 24.8229C27.9635 24.977 27.7134 24.977 27.5592 24.8229C27.4049 24.6688 27.4049 24.4188 27.5592 24.2647L31.9037 19.923C32.0579 19.7688 32.308 19.7688 32.4623 19.923Z" fill="white" stroke="white" stroke-width="0.5" stroke-linecap="round" stroke-linejoin="round"/>
<path fill-rule="evenodd" clip-rule="evenodd" d="M20.0851 1.10669C20.2403 1.25985 20.2419 1.50975 20.0886 1.66487L9.81975 12.0587C9.66649 12.2138 9.41642 12.2154 9.2612 12.0622C9.10598 11.9091 9.10439 11.6592 9.25765 11.5041L19.5265 1.11025C19.6798 0.955128 19.9299 0.953537 20.0851 1.10669Z" fill="white" stroke="white" stroke-width="0.5" stroke-linecap="round" stroke-linejoin="round"/>
<path fill-rule="evenodd" clip-rule="evenodd" d="M32.5938 13.344C32.7481 13.4981 32.7481 13.7481 32.5938 13.9022L22.5882 23.9013C22.434 24.0555 22.1839 24.0555 22.0297 23.9013C21.8754 23.7472 21.8754 23.4973 22.0297 23.3431L32.0353 13.344C32.1895 13.1899 32.4396 13.1899 32.5938 13.344Z" fill="white" stroke="white" stroke-width="0.5" stroke-linecap="round" stroke-linejoin="round"/>
<path fill-rule="evenodd" clip-rule="evenodd" d="M26.4084 1.24238C26.5614 1.39776 26.5594 1.64766 26.4039 1.80055L9.94736 17.9833C9.79188 18.1362 9.54182 18.1342 9.38883 17.9788C9.23584 17.8235 9.23785 17.5736 9.39333 17.4207L25.8499 1.23788C26.0054 1.08498 26.2554 1.087 26.4084 1.24238Z" fill="white" stroke="white" stroke-width="0.5" stroke-linecap="round" stroke-linejoin="round"/>
<path fill-rule="evenodd" clip-rule="evenodd" d="M32.5939 7.16065C32.7482 7.31479 32.7482 7.5647 32.5939 7.71884L16.0057 24.2963C15.8515 24.4505 15.6014 24.4505 15.4472 24.2963C15.2929 24.1422 15.2929 23.8923 15.4472 23.7381L32.0354 7.16065C32.1896 7.00651 32.4397 7.00651 32.5939 7.16065Z" fill="white" stroke="white" stroke-width="0.5" stroke-linecap="round" stroke-linejoin="round"/>
<path fill-rule="evenodd" clip-rule="evenodd" d="M32.3306 1.24012C32.4849 1.39426 32.4849 1.64417 32.3306 1.79831L9.68638 24.4279C9.53214 24.582 9.28207 24.582 9.12783 24.4279C8.97359 24.2738 8.97359 24.0238 9.12783 23.8697L31.7721 1.24012C31.9263 1.08598 32.1764 1.08598 32.3306 1.24012Z" fill="white" stroke="white" stroke-width="0.5" stroke-linecap="round" stroke-linejoin="round"/>
</svg>
