<svg width="34" height="33" viewBox="0 0 34 33" fill="none" xmlns="http://www.w3.org/2000/svg">
<path d="M24.6002 3.1911C24.3373 1.93865 23.1962 0.992859 21.8313 0.992859C21.5193 0.992859 21.2661 1.23851 21.2661 1.54242C21.2661 1.84633 21.5193 2.09198 21.8313 2.09198C22.7661 2.09198 23.5269 2.83169 23.5269 3.74066C23.5269 4.64963 22.7661 5.38934 21.8313 5.38934C21.5193 5.38934 21.2661 5.63499 21.2661 5.9389C21.2661 6.24281 21.5193 6.48846 21.8313 6.48846C23.1957 6.48846 24.3373 5.54267 24.6002 4.29022H32.0047V9.23626H1.48439V4.29022H9.39707H11.0926C11.4046 4.29022 11.6578 4.04457 11.6578 3.74066C11.6578 3.43675 11.4046 3.1911 11.0926 3.1911H10.0663C10.3002 2.55251 10.922 2.09198 11.6578 2.09198C12.5927 2.09198 13.3534 2.83169 13.3534 3.74066C13.3534 4.64963 12.5927 5.38934 11.6578 5.38934C11.3458 5.38934 11.0926 5.63499 11.0926 5.9389C11.0926 6.24281 11.3458 6.48846 11.6578 6.48846C13.2161 6.48846 14.4838 5.2558 14.4838 3.74066C14.4838 2.22552 13.2161 0.992859 11.6578 0.992859C10.2935 0.992859 9.15177 1.93865 8.88896 3.1911H0.354004V10.3354V32.3178H33.1351V10.3354V3.1911H24.6002ZM32.0047 31.2187H1.48439V10.3354H32.0047V31.2187Z" fill="white"/>
<path d="M15.049 2.09198C15.9838 2.09198 16.7446 2.83169 16.7446 3.74066C16.7446 4.64963 15.9838 5.38934 15.049 5.38934C14.737 5.38934 14.4838 5.63499 14.4838 5.9389C14.4838 6.24281 14.737 6.48846 15.049 6.48846C16.6072 6.48846 17.875 5.2558 17.875 3.74066C17.875 2.22552 16.6072 0.992859 15.049 0.992859C14.737 0.992859 14.4838 1.23851 14.4838 1.54242C14.4838 1.84633 14.737 2.09198 15.049 2.09198Z" fill="white"/>
<path d="M18.4402 2.09198C19.375 2.09198 20.1358 2.83169 20.1358 3.74066C20.1358 4.64963 19.375 5.38934 18.4402 5.38934C18.1282 5.38934 17.875 5.63499 17.875 5.9389C17.875 6.24281 18.1282 6.48846 18.4402 6.48846C19.9984 6.48846 21.2662 5.2558 21.2662 3.74066C21.2662 2.22552 19.9984 0.992859 18.4402 0.992859C18.1282 0.992859 17.875 1.23851 17.875 1.54242C17.875 1.84633 18.1282 2.09198 18.4402 2.09198Z" fill="white"/>
<path d="M5.4408 14.7322H17.875C18.187 14.7322 18.4402 14.4863 18.4402 14.1822C18.4402 13.8781 18.187 13.6323 17.875 13.6323H5.4408C5.12882 13.6323 4.87561 13.8781 4.87561 14.1822C4.87561 14.4863 5.12882 14.7322 5.4408 14.7322Z" fill="white"/>
<path d="M28.0484 22.4256H19.5706C19.2586 22.4256 19.0054 22.6714 19.0054 22.9755C19.0054 23.2796 19.2586 23.5254 19.5706 23.5254H28.0484C28.3604 23.5254 28.6136 23.2796 28.6136 22.9755C28.6136 22.6714 28.3604 22.4256 28.0484 22.4256Z" fill="white"/>
<path d="M5.4408 19.129H11.0927C11.4047 19.129 11.6579 18.8832 11.6579 18.5791C11.6579 18.275 11.4047 18.0292 11.0927 18.0292H5.4408C5.12882 18.0292 4.87561 18.275 4.87561 18.5791C4.87561 18.8832 5.12882 19.129 5.4408 19.129Z" fill="white"/>
<path d="M28.0485 26.822H22.3966C22.0846 26.822 21.8314 27.0678 21.8314 27.3719C21.8314 27.676 22.0846 27.9219 22.3966 27.9219H28.0485C28.3605 27.9219 28.6137 27.676 28.6137 27.3719C28.6137 27.0678 28.3605 26.822 28.0485 26.822Z" fill="white"/>
<path d="M16.1794 18.5791C16.1794 18.8832 16.4326 19.129 16.7446 19.129H25.2224C25.5344 19.129 25.7876 18.8832 25.7876 18.5791C25.7876 18.275 25.5344 18.0292 25.2224 18.0292H16.7446C16.4326 18.0292 16.1794 18.275 16.1794 18.5791Z" fill="white"/>
<path d="M14.3199 18.9698C14.4217 18.8653 14.4838 18.7223 14.4838 18.5794C14.4838 18.4358 14.4217 18.2929 14.3199 18.1889C14.1108 17.9854 13.7265 17.9854 13.5174 18.1889C13.4156 18.2929 13.3535 18.4358 13.3535 18.5794C13.3535 18.7223 13.4156 18.8653 13.5174 18.9698C13.6247 19.0737 13.7717 19.1293 13.9186 19.1293C14.0656 19.1293 14.2125 19.0737 14.3199 18.9698Z" fill="white"/>
<path d="M7.70154 22.9755C7.70154 23.2796 7.95474 23.5254 8.26673 23.5254H16.7446C17.0566 23.5254 17.3098 23.2796 17.3098 22.9755C17.3098 22.6714 17.0566 22.4256 16.7446 22.4256H8.26673C7.95474 22.4256 7.70154 22.6714 7.70154 22.9755Z" fill="white"/>
<path d="M5.4408 23.5259C5.58775 23.5259 5.7347 23.4654 5.84209 23.3665C5.94382 23.262 6.00599 23.119 6.00599 22.976C6.00599 22.8325 5.94382 22.6895 5.84209 22.5911C5.63297 22.3821 5.24864 22.3821 5.03952 22.5856C4.93778 22.6895 4.87561 22.8325 4.87561 22.976C4.87561 23.119 4.93778 23.262 5.03952 23.3665C5.1469 23.4654 5.2882 23.5259 5.4408 23.5259Z" fill="white"/>
<path d="M28.0484 19.1293C28.1954 19.1293 28.3423 19.0737 28.4497 18.9698C28.5571 18.8653 28.6136 18.7223 28.6136 18.5794C28.6136 18.4358 28.5571 18.2929 28.4497 18.1889C28.2349 17.9854 27.8562 17.9854 27.6471 18.1889C27.5454 18.2929 27.4832 18.4358 27.4832 18.5794C27.4832 18.7223 27.5454 18.8653 27.6471 18.9698C27.7545 19.0737 27.9015 19.1293 28.0484 19.1293Z" fill="white"/>
<path d="M19.5706 26.822H5.4408C5.12882 26.822 4.87561 27.0678 4.87561 27.3719C4.87561 27.676 5.12882 27.9219 5.4408 27.9219H19.5706C19.8826 27.9219 20.1358 27.676 20.1358 27.3719C20.1358 27.0678 19.8826 26.822 19.5706 26.822Z" fill="white"/>
</svg>
